# xmcd CD database file
# Copyright (C) 1993-1996 Ti Kan
#
# Track frame offsets:
# 150
# 23782
# 37440
# 56057
# 70062
# 88495
# 104707
# 121772
# 135162
# 151035
# 169770
# 193897
#
# Disc length: 2764 seconds
# Revision: 0
# Processed by: cddbd v1.4b41PL1 Copyright (c) Steve Scherf et al.
# Submitted via: CDSpectrumPro v3.2.327
#
DISCID=a80aca0c
DTITLE=Don Neilson - Based On A True Story
DYEAR=1900
DGENRE=
TTITLE0=Based On A True Story
TTITLE1=Country In The City
TTITLE2=Easy To Say
TTITLE3=The Point Of Love
TTITLE4=Rusted Hinges
TTITLE5=That's Why
TTITLE6=The Lie
TTITLE7=No Sign Of The Kid
TTITLE8=Guided Heart
TTITLE9=Love That I Deserve
TTITLE10=High Road
TTITLE11=World To Me
EXTD=
EXTT0=
EXTT1=
EXTT2=
EXTT3=
EXTT4=
EXTT5=
EXTT6=
EXTT7=
EXTT8=
EXTT9=
EXTT10=
EXTT11=
PLAYORDER=
